<?xml version="1.0" standalone="no"?>
<!DOCTYPE svg PUBLIC "-//W3C//DTD SVG 20010904//EN"
 "http://www.w3.org/TR/2001/REC-SVG-20010904/DTD/svg10.dtd">
<svg version="1.0" xmlns="http://www.w3.org/2000/svg"
 width="1024.000000pt" height="1024.000000pt" viewBox="0 0 1024.000000 1024.000000"
 preserveAspectRatio="xMidYMid meet">

<g transform="translate(0.000000,1024.000000) scale(0.100000,-0.100000)"
fill="#000000" stroke="none">
<path d="M0 5120 l0 -5120 5120 0 5120 0 0 5120 0 5120 -5120 0 -5120 0 0
-5120z m5361 1448 c270 -134 329 -503 115 -722 -93 -95 -217 -132 -425 -124
-93 3 -99 2 -83 -13 15 -14 251 -228 276 -250 5 -4 -18 -35 -51 -69 l-60 -62
-79 75 c-43 41 -136 125 -206 186 -70 61 -130 116 -133 121 -4 6 -72 10 -166
10 l-159 0 0 80 0 80 406 0 c458 -1 468 0 547 71 67 58 91 115 91 214 0 94
-24 155 -86 214 -75 73 -97 76 -498 76 -195 0 -410 -1 -477 -4 l-123 -4 0
-969 0 -968 -79 0 -79 0 -4 58 c-2 31 -3 192 -1 357 4 345 3 497 0 1160 -2
264 -1 490 1 503 l4 22 597 -2 597 -3 75 -37z m1619 -1748 c0 -467 -3 -850 -6
-850 -4 0 -41 33 -83 73 -42 39 -166 151 -276 248 -110 97 -267 238 -350 314
-82 76 -217 199 -300 274 -82 74 -188 170 -234 214 -88 83 -139 120 -153 111
-4 -3 -8 -273 -8 -600 l0 -595 -80 2 -80 2 0 611 0 612 43 42 c24 23 47 39 51
35 4 -5 6 -3 4 3 -2 6 19 36 46 67 l48 55 141 -126 c78 -70 182 -165 232 -212
50 -47 166 -152 260 -235 93 -82 236 -211 318 -285 81 -74 175 -159 207 -189
l60 -54 0 667 0 666 80 0 80 0 0 -850z m-3220 255 l0 -65 -272 0 c-150 -1
-297 -3 -326 -6 -30 -3 -64 -3 -78 0 -22 6 -24 11 -24 71 l0 65 350 0 350 0 0
-65z m4100 13 c0 -87 17 -82 -291 -80 -150 2 -275 5 -278 8 -3 2 -7 31 -9 64
l-4 60 291 0 291 0 0 -52z m-4060 -1573 c35 -18 38 -35 10 -60 -17 -15 -24
-16 -46 -7 -13 7 -38 12 -54 12 -25 0 -30 -4 -30 -23 0 -19 9 -26 55 -41 147
-46 132 -206 -20 -206 -36 0 -115 35 -115 51 0 4 11 21 24 36 l25 28 15 -21
c30 -42 106 -38 106 6 0 24 -6 27 -87 51 -37 10 -70 24 -75 31 -4 7 -8 34 -8
59 0 46 15 69 65 98 25 14 95 7 135 -14z m1600 9 c0 -2 -18 -41 -39 -86 -21
-46 -54 -116 -72 -156 -18 -40 -39 -78 -45 -83 -8 -6 -20 8 -42 48 -30 59
-122 266 -122 277 0 3 14 6 30 6 29 0 33 -6 78 -99 26 -55 50 -100 53 -100 4
-1 12 20 18 45 25 99 74 165 115 157 14 -3 26 -7 26 -9z m874 -20 l45 -29 -35
-33 c-19 -18 -34 -28 -34 -22 0 14 -62 40 -94 40 -20 0 -31 -10 -48 -42 -16
-31 -23 -38 -26 -25 -2 9 -7 17 -11 17 -17 0 29 -106 55 -128 32 -28 83 -25
116 4 18 17 20 17 46 -10 l27 -27 -25 -19 c-14 -10 -46 -24 -71 -30 -41 -10
-53 -9 -98 11 -71 30 -111 78 -111 132 0 54 17 117 38 141 10 10 35 27 57 38
53 25 112 19 169 -18z m909 22 c60 -27 62 -31 38 -65 -18 -25 -26 -29 -41 -21
-28 15 -100 13 -100 -3 0 -19 21 -37 43 -37 55 0 127 -67 127 -119 0 -11 -13
-35 -28 -52 -39 -43 -102 -50 -166 -18 -50 25 -56 37 -27 63 17 16 22 16 43 3
43 -27 76 -29 98 -7 12 12 20 27 17 33 -2 7 -34 20 -72 29 -81 20 -96 32 -102
89 -4 35 0 50 17 71 34 43 99 58 153 34z m-2853 -32 l0 -34 -80 0 -80 0 0 -30
c0 -29 2 -30 45 -30 45 0 45 0 45 -35 0 -35 0 -35 -45 -35 -43 0 -45 -1 -45
-29 0 -36 13 -41 97 -41 l66 0 -7 -32 c-3 -17 -8 -33 -10 -35 -1 -2 -48 0
-104 3 l-100 7 -6 30 c-7 37 -8 282 -1 289 3 3 55 6 115 6 l110 1 0 -35z
m1420 -129 l0 -165 -35 0 -35 0 0 165 0 165 35 0 35 0 0 -165z m1028 128 l3
-33 -83 0 -84 0 4 -35 c4 -35 5 -35 39 -29 25 5 38 3 44 -7 22 -35 -6 -69 -57
-69 -29 0 -34 -3 -34 -24 0 -29 21 -36 108 -36 34 0 62 -3 62 -7 0 -5 -3 -18
-6 -30 -6 -22 -11 -23 -115 -23 l-109 0 0 160 0 159 68 4 c37 2 87 3 112 3 43
-1 45 -2 48 -33z m-1959 1 c18 -15 33 -39 37 -59 8 -43 -12 -104 -37 -113 -18
-7 -17 -11 15 -62 32 -50 33 -56 16 -62 -34 -12 -53 -2 -95 53 -57 75 -75 76
-75 5 l0 -56 -35 0 -35 0 0 160 0 160 89 0 c81 0 92 -2 120 -26z"/>
<path d="M5475 5291 c-3 -5 -2 -12 3 -15 5 -3 9 1 9 9 0 17 -3 19 -12 6z"/>
<path d="M4684 3446 c-3 -8 -4 -27 -2 -43 2 -22 9 -29 32 -31 53 -6 76 5 76
38 0 19 -7 33 -19 40 -28 15 -81 12 -87 -4z"/>
</g>
</svg>
